<svg width="15" height="14" viewBox="0 0 15 14" fill="none" xmlns="http://www.w3.org/2000/svg">
<path d="M14.8483 9.2911C14.7643 9.42221 14.6703 9.54667 14.5669 9.66338C14.4168 9.81162 14.2159 9.84517 14.0063 9.84449C13.0784 9.84449 12.1498 9.84449 11.2219 9.84449C10.6464 9.84449 10.4205 9.67076 10.2643 9.07981C9.92616 9.1925 9.56772 9.26897 9.24986 9.42324C8.62293 9.72845 8.30304 10.2584 8.26922 10.9499C8.25096 11.3001 8.27666 11.6563 8.21985 11.9997C8.12249 12.549 7.823 13.0429 7.37942 13.3857C6.93584 13.7285 6.37976 13.8958 5.81893 13.8551C5.2581 13.8144 4.73246 13.5687 4.34388 13.1655C3.95529 12.7624 3.73143 12.2305 3.71567 11.673C3.70215 11.1545 3.71162 10.6353 3.71094 10.1168V9.84382C3.44042 9.84382 3.18951 9.84382 2.93928 9.84382C2.31399 9.84228 1.70765 9.6308 1.219 9.24383C0.730362 8.85687 0.388209 8.31722 0.248273 7.71276C0.196228 7.48475 0.170371 7.25162 0.171182 7.01784C0.163968 5.721 0.163968 4.42416 0.171182 3.12732C0.177945 1.50807 1.38852 0.310057 3.02382 0.306033C4.55902 0.301337 6.09423 0.31878 7.62943 0.299998C8.57085 0.288595 9.45545 0.449579 10.2765 0.960041C10.3056 0.892963 10.3286 0.830582 10.3556 0.772224C10.4861 0.488485 10.7093 0.314082 11.0224 0.310729C12.0594 0.301338 13.0964 0.301338 14.1334 0.310729C14.404 0.310729 14.6116 0.457628 14.7495 0.69173C14.7827 0.747404 14.8172 0.80241 14.8496 0.857414L14.8483 9.2911Z" fill="white"/>
</svg>
