<svg width="16" height="14" viewBox="0 0 16 14" fill="none" xmlns="http://www.w3.org/2000/svg">
<path d="M0.333074 4.9037C0.417078 4.77264 0.511129 4.64819 0.614397 4.53145C0.765204 4.38322 0.96538 4.349 1.1757 4.34968C2.10353 4.34968 3.03136 4.34968 3.95919 4.34968C4.53469 4.34968 4.76055 4.52273 4.91677 5.11365C5.2549 5.00163 5.614 4.92517 5.93116 4.77023C6.55806 4.46504 6.87793 3.93516 6.91242 3.24363C6.93068 2.89351 6.90498 2.53735 6.96179 2.19393C7.05917 1.64462 7.3587 1.15072 7.80231 0.807967C8.24593 0.465214 8.80205 0.298012 9.36288 0.33877C9.92371 0.379529 10.4493 0.625345 10.8378 1.02857C11.2263 1.4318 11.4501 1.96372 11.4657 2.52125C11.4785 3.03973 11.4657 3.55821 11.4697 4.07736V4.34968C11.7402 4.34968 11.9918 4.34968 12.242 4.34968C12.8671 4.35206 13.4729 4.56383 13.9614 4.95064C14.4498 5.33744 14.7922 5.87659 14.9329 6.48061C14.9849 6.70884 15.0108 6.94217 15.01 7.17616C15.0176 8.47292 15.0176 9.76968 15.01 11.0664C15.0032 12.6856 13.7927 13.8835 12.1582 13.8835C10.6231 13.8882 9.08728 13.8715 7.55216 13.8896C6.61148 13.901 5.72626 13.74 4.90528 13.2296C4.8762 13.2966 4.85388 13.3597 4.82683 13.418C4.69564 13.7018 4.47315 13.8762 4.15936 13.8788C3.12243 13.8891 2.08549 13.8891 1.04856 13.8788C0.778055 13.8788 0.571116 13.7313 0.432483 13.4979C0.400022 13.4422 0.364858 13.3872 0.332397 13.3322L0.333074 4.9037Z" fill="white"/>
</svg>
