<svg width="28" height="14" viewBox="0 0 28 14" fill="none" xmlns="http://www.w3.org/2000/svg">
<path d="M8.06885 7.4934L7.19609 4.0126H5.53118L4.42358 10.2606H5.84576L6.52049 6.46698L7.28547 9.46628H8.25812L9.95895 6.46698L9.28335 10.2606H10.7327L11.8394 4.0126H10.0571L8.06885 7.4934Z" fill="white"/>
<path d="M17.0943 5.29802L17.3195 4.0126H13.0539L11.9463 10.2606H16.2128L16.4371 8.97523H13.6743L13.8995 7.69937H16.1129L16.3381 6.43134H14.1247L14.3227 5.29802H17.0943Z" fill="white"/>
<path d="M21.3241 6.41396H19.3709L19.7941 4.0126H18.3001L17.1934 10.2606H18.6874L19.1369 7.71676H21.0901L20.6406 10.2606H22.1337L23.2413 4.0126H21.7473L21.3241 6.41396Z" fill="white"/>
<rect x="1.63879" y="1.08463" width="24.87" height="12.0616" rx="2.25" stroke="white" stroke-width="1.5"/>
</svg>
